# written by convert_mb_to_amc()
:FULLY-SPECIFIED
:DEGREES
92
upperback 3.985752 -11.342671 -2.860612
rfoot -24.445900 -11.255879
lradius 10.990574
lthumb -0.483944 -279.367096
rradius 21.772472
lwrist -22.385509
rhand -36.628632 318.574829
rhumerus -62.845253 -28.701801 -28.922873
lowerneck -6.908278 7.200420 7.856363
lhand -27.066113 50.653538
ltibia 62.208206
head 4.940745 4.457229 -1.408844
rwrist 17.869703
lfingers 7.125020
rtoes 0.246532
lowerback 5.354590 -8.456594 1.787196
rfingers 7.125020
lclavicle -0.000000 0.000000
upperneck 11.135475 8.850272 -2.359518
rfemur -66.363014 11.525653 11.441628
thorax 0.243507 -5.678950 -3.265429
rclavicle -0.000000 0.000000
rtibia 62.181561
lfoot -24.469950 20.800720
lhumerus 39.952766 31.496811 112.532135
rthumb -9.716351 -71.180840
root 43.369236 17.013348 5.459063 924.313721 307.938934 183.596924
ltoes 1.459222
lfemur -38.091045 1.821261 -1.026756
93
upperback 3.722492 -11.569502 -1.757716
rfoot -22.324596 -11.531914
lradius 24.096256
lthumb 1.138025 -280.124481
rradius 22.883772
lwrist 6.556178
rhand -28.992453 334.582581
rhumerus -63.891869 -28.342133 -33.511475
lowerneck -7.174265 6.137817 7.368516
lhand -25.386755 49.898689
ltibia 62.202126
head 4.839014 3.766242 -1.184113
rwrist 13.041699
lfingers 7.125020
rtoes 3.671013
lowerback 4.313304 -8.691916 2.953312
rfingers 7.125020
lclavicle -0.000000 -0.000000
upperneck 11.069583 7.375977 -1.532359
rfemur -68.107193 9.844580 13.858014
thorax 0.529141 -5.755068 -2.894399
rclavicle -0.000000 -0.000000
rtibia 60.914452
lfoot -22.298143 1.996825
lhumerus 28.608913 6.319231 91.763931
rthumb -2.344409 -55.384132
root 44.885838 17.073982 5.001574 926.159363 302.476807 181.055466
ltoes -5.146522
lfemur -27.847363 2.157837 -13.206181
94
upperback 2.972659 -11.719194 -0.701458
rfoot -16.037153 -13.307972
lradius 46.887962
lthumb 0.938443 -279.420532
rradius 27.737505
lwrist 12.662732
rhand -19.580038 330.427582
rhumerus -61.961353 -23.827209 -42.728146
lowerneck -7.620712 4.121927 6.096633
lhand -25.593422 50.601803
ltibia 48.844139
head 4.909004 2.439568 -0.588385
rwrist -2.423260
lfingers 7.125020
rtoes 7.787022
lowerback 2.542455 -8.825072 4.635231
rfingers 7.125020
lclavicle 0.000000 -0.000000
upperneck 11.700852 4.543237 0.351386
rfemur -67.322205 6.349974 13.938250
thorax 0.610181 -5.798841 -2.913800
rclavicle 0.000000 -0.000000
rtibia 55.709850
lfoot -22.019180 -2.107503
lhumerus 17.696663 -9.775095 85.184868
rthumb 6.745219 -59.444908
root 46.352467 17.240776 5.428623 926.450378 295.808105 178.463943
ltoes -2.494787
lfemur -15.897073 2.726196 -20.630413
95
upperback 2.561810 -11.452712 -1.182642
rfoot -7.863009 -18.128454
lradius 72.730019
lthumb -0.756050 -281.604584
rradius 31.997183
lwrist 5.732266
rhand -14.286202 321.778107
rhumerus -62.313866 -20.277990 -48.235775
lowerneck -7.940940 1.352603 3.367285
lhand -27.347847 48.417706
ltibia 35.941116
head 5.663018 0.530513 0.952181
rwrist -12.531579
lfingers 7.125020
rtoes 10.115290
lowerback 1.578775 -8.595204 4.061990
rfingers 7.125020
lclavicle 0.000000 0.000000
upperneck 14.373749 0.303166 4.770837
rfemur -60.887463 4.507583 12.772247
thorax 0.747974 -5.676228 -3.231042
rclavicle 0.000000 0.000000
rtibia 49.710258
lfoot -37.270805 7.151063
lhumerus 0.977242 -22.326286 85.667770
rthumb 11.853122 -67.866142
root 48.110321 17.126719 6.508602 916.407837 288.140686 180.689056
ltoes -12.232548
lfemur -6.220229 -4.976904 -20.058611
96
upperback 1.962950 -10.609200 -2.418770
rfoot -1.299710 -25.534300
lradius 92.616501
lthumb -9.963670 -286.144989
rradius 31.701000
lwrist -7.713510
rhand -11.254400 312.050995
rhumerus -65.563202 -23.323000 -41.492699
lowerneck -6.504510 -0.422502 0.833804
lhand -36.884998 44.110401
ltibia 37.314800
head 6.488020 -0.853799 1.963720
rwrist -11.228200
lfingers 7.125020
rtoes 11.058600
lowerback 0.853012 -7.942710 2.365420
rfingers 7.125020
lclavicle -0.000000 -0.000000
upperneck 17.531000 -2.558710 7.269300
rfemur -48.972000 7.721560 8.637600
thorax 0.667814 -5.287400 -3.675930
rclavicle -0.000000 -0.000000
rtibia 40.943600
lfoot -41.559299 6.041260
lhumerus -23.044800 -34.028500 91.543900
rthumb 14.775400 -77.402397
root 49.413952 17.169851 7.578885 901.200989 283.946014 185.806000
ltoes 1.115220
lfemur -0.807791 -6.614270 -20.682400
